# xmcd
#
# Track frame offsets:
#	151
#	17028
#	35923
#	55980
#	77967
#	99254
#	119603
#	137618
#	160173
#	177404
#	200879
#	213902
#	232529
#	255214
#
# Disc length: 3662 seconds
#
# Revision: 2
# Processed by: cddbd v1.5.2PL0 Copyright (c) Steve Scherf et al.
# Submitted via: EZCDAudioConverter 8.0.2.1
#
DISCID=ba0e4c0e
DTITLE=群星 - 滚石红人堂Ⅰ CD2 - 一人一首成名曲❷
DYEAR=2003
DGENRE=
TTITLE0=齐豫 - 橄榄树
TTITLE1=莫文蔚 - 盛夏的果实
TTITLE2=赵咏华 - 最浪漫的事
TTITLE3=徐怀钰 - 我是女生
TTITLE4=刘若英 - 很爱很爱你
TTITLE5=陈升 - 把悲伤留给自己
TTITLE6=梁静茹 - 勇气
TTITLE7=顺子 - 回家
TTITLE8=陈绮贞 - 让我想一想
TTITLE9=马兆骏 - 我要的不多
TTITLE10=五月天 - 左键
TTITLE11=潘越云 - 我是不是你最疼爱的人
TTITLE12=周华健 - 浓情化不开
TTITLE13=任贤齐 - 着紧
EXTD=
EXTT0=
EXTT1=
EXTT2=
EXTT3=
EXTT4=
EXTT5=
EXTT6=
EXTT7=
EXTT8=
EXTT9=
EXTT10=
EXTT11=
EXTT12=
EXTT13=
PLAYORDER=
